<svg width="112" height="112" viewBox="0 0 112 112" fill="none" xmlns="http://www.w3.org/2000/svg">
<mask id="mask0" mask-type="alpha" maskUnits="userSpaceOnUse" x="0" y="0" width="112" height="112">
<rect width="112" height="112" fill="#C4C4C4"/>
</mask>
<g mask="url(#mask0)">
<g filter="url(#filter0_i)">
<g filter="url(#filter1_d)">
<path fill-rule="evenodd" clip-rule="evenodd" d="M101.381 62.5798C101.977 59.6099 102.29 56.5375 102.29 53.3919C102.29 27.7704 81.5199 7 55.8984 7C32.1315 7 12.539 24.8721 9.8269 47.91H65.1786C79.2511 47.91 92.0182 53.4997 101.381 62.5798Z" fill="#311F58"/>
</g>
<mask id="mask1" mask-type="alpha" maskUnits="userSpaceOnUse" x="0" y="50" width="111" height="106">
<g style="mix-blend-mode:multiply" clip-path="url(#clip0)">
<path d="M42.0368 52.9166H38.2351V56.5489H42.0368V52.9166Z" fill="#0B032D"/>
<path d="M49.6401 52.9166H45.8384V56.5489H49.6401V52.9166Z" fill="#0B032D"/>
<path d="M57.2436 52.9166H53.4419V56.5489H57.2436V52.9166Z" fill="#0B032D"/>
<path d="M61.0451 52.9166H57.2434V56.5489H61.0451V52.9166Z" fill="#0B032D"/>
<path d="M72.4504 52.9166H68.6487V56.5489H72.4504V52.9166Z" fill="#0B032D"/>
<path d="M42.0368 56.5489H38.2351V60.1812H42.0368V56.5489Z" fill="#0B032D"/>
<path d="M45.8386 56.5489H42.0369V60.1812H45.8386V56.5489Z" fill="#0B032D"/>
<path d="M72.4504 56.5489H68.6487V60.1812H72.4504V56.5489Z" fill="#0B032D"/>
<path d="M45.8385 60.1812H42.0369V63.8135H45.8385V60.1812Z" fill="#0B032D"/>
<path d="M53.4418 60.1812H49.6401V63.8135H53.4418V60.1812Z" fill="#0B032D"/>
<path d="M61.0451 60.1812H57.2434V63.8135H61.0451V60.1812Z" fill="#0B032D"/>
<path d="M64.8469 60.1812H61.0452V63.8135H64.8469V60.1812Z" fill="#0B032D"/>
<path d="M68.6486 60.1812H64.8469V63.8135H68.6486V60.1812Z" fill="#0B032D"/>
<path d="M42.0368 63.8135H38.2351V67.4458H42.0368V63.8135Z" fill="#0B032D"/>
<path d="M53.4418 63.8135H49.6401V67.4458H53.4418V63.8135Z" fill="#0B032D"/>
<path d="M57.2436 63.8135H53.4419V67.4458H57.2436V63.8135Z" fill="#0B032D"/>
<path d="M53.4418 67.4458H49.6401V71.0781H53.4418V67.4458Z" fill="#0B032D"/>
<path d="M57.2436 67.4458H53.4419V71.0781H57.2436V67.4458Z" fill="#0B032D"/>
<path d="M61.0451 67.4458H57.2434V71.0781H61.0451V67.4458Z" fill="#0B032D"/>
<path d="M64.8469 67.4458H61.0452V71.0781H64.8469V67.4458Z" fill="#0B032D"/>
<path d="M68.6486 67.4458H64.8469V71.0781H68.6486V67.4458Z" fill="#0B032D"/>
<path d="M72.4501 67.4458H68.6484V71.0781H72.4501V67.4458Z" fill="#0B032D"/>
<path d="M45.8386 71.0781H42.0369V74.7104H45.8386V71.0781Z" fill="#0B032D"/>
<path d="M49.6401 71.0781H45.8384V74.7104H49.6401V71.0781Z" fill="#0B032D"/>
<path d="M57.2436 71.0781H53.4419V74.7104H57.2436V71.0781Z" fill="#0B032D"/>
<path d="M64.8469 71.0781H61.0452V74.7104H64.8469V71.0781Z" fill="#0B032D"/>
<path d="M42.0368 74.7104H38.2351V78.3428H42.0368V74.7104Z" fill="#0B032D"/>
<path d="M49.6401 74.7104H45.8384V78.3427H49.6401V74.7104Z" fill="#0B032D"/>
<path d="M57.2436 74.7104H53.4419V78.3428H57.2436V74.7104Z" fill="#0B032D"/>
<path d="M64.8469 74.7104H61.0452V78.3428H64.8469V74.7104Z" fill="#0B032D"/>
<path d="M72.4504 74.7104H68.6487V78.3427H72.4504V74.7104Z" fill="#0B032D"/>
<path d="M42.0368 78.3427H38.2351V81.975H42.0368V78.3427Z" fill="#0B032D"/>
<path d="M53.4418 78.3427H49.6401V81.9751H53.4418V78.3427Z" fill="#0B032D"/>
<path d="M61.0451 78.3427H57.2434V81.9751H61.0451V78.3427Z" fill="#0B032D"/>
<path d="M64.8469 78.3427H61.0452V81.975H64.8469V78.3427Z" fill="#0B032D"/>
<path d="M68.6486 78.3427H64.8469V81.9751H68.6486V78.3427Z" fill="#0B032D"/>
<path d="M11.6232 81.975H7.82153V85.6073H11.6232V81.975Z" fill="#0B032D"/>
<path d="M19.2265 81.9751H15.4248V85.6074H19.2265V81.9751Z" fill="#0B032D"/>
<path d="M23.0285 81.975H19.2268V85.6074H23.0285V81.975Z" fill="#0B032D"/>
<path d="M30.6315 81.975H26.8298V85.6074H30.6315V81.975Z" fill="#0B032D"/>
<path d="M34.4333 81.975H30.6316V85.6074H34.4333V81.975Z" fill="#0B032D"/>
<path d="M38.2351 81.975H34.4333V85.6073H38.2351V81.975Z" fill="#0B032D"/>
<path d="M45.8385 81.975H42.0369V85.6074H45.8385V81.975Z" fill="#0B032D"/>
<path d="M53.4418 81.975H49.6401V85.6074H53.4418V81.975Z" fill="#0B032D"/>
<path d="M61.0451 81.975H57.2434V85.6074H61.0451V81.975Z" fill="#0B032D"/>
<path d="M64.8469 81.975H61.0452V85.6074H64.8469V81.975Z" fill="#0B032D"/>
<path d="M72.4504 81.975H68.6487V85.6074H72.4504V81.975Z" fill="#0B032D"/>
<path d="M80.0537 81.975H76.252V85.6074H80.0537V81.975Z" fill="#0B032D"/>
<path d="M91.4589 81.975H87.6572V85.6073H91.4589V81.975Z" fill="#0B032D"/>
<path d="M99.0622 81.975H95.2605V85.6073H99.0622V81.975Z" fill="#0B032D"/>
<path d="M102.864 81.975H99.062V85.6074H102.864V81.975Z" fill="#0B032D"/>
<path d="M11.6232 85.6074H7.82153V89.2397H11.6232V85.6074Z" fill="#0B032D"/>
<path d="M15.425 85.6074H11.6233V89.2397H15.425V85.6074Z" fill="#0B032D"/>
<path d="M23.0285 85.6074H19.2268V89.2397H23.0285V85.6074Z" fill="#0B032D"/>
<path d="M45.8386 85.6074H42.0369V89.2397H45.8386V85.6074Z" fill="#0B032D"/>
<path d="M49.6401 85.6074H45.8384V89.2397H49.6401V85.6074Z" fill="#0B032D"/>
<path d="M53.4418 85.6074H49.6401V89.2397H53.4418V85.6074Z" fill="#0B032D"/>
<path d="M72.4504 85.6074H68.6487V89.2397H72.4504V85.6074Z" fill="#0B032D"/>
<path d="M76.2521 85.6074H72.4504V89.2397H76.2521V85.6074Z" fill="#0B032D"/>
<path d="M83.8554 85.6074H80.0537V89.2397H83.8554V85.6074Z" fill="#0B032D"/>
<path d="M99.0622 85.6074H95.2605V89.2397H99.0622V85.6074Z" fill="#0B032D"/>
<path d="M19.2265 89.2397H15.4248V92.872H19.2265V89.2397Z" fill="#0B032D"/>
<path d="M34.4335 89.2397H30.6318V92.872H34.4335V89.2397Z" fill="#0B032D"/>
<path d="M38.2351 89.2397H34.4333V92.872H38.2351V89.2397Z" fill="#0B032D"/>
<path d="M42.0368 89.2397H38.2351V92.872H42.0368V89.2397Z" fill="#0B032D"/>
<path d="M53.4418 89.2397H49.6401V92.872H53.4418V89.2397Z" fill="#0B032D"/>
<path d="M57.2436 89.2397H53.4419V92.872H57.2436V89.2397Z" fill="#0B032D"/>
<path d="M64.8469 89.2397H61.0452V92.872H64.8469V89.2397Z" fill="#0B032D"/>
<path d="M76.2521 89.2397H72.4504V92.872H76.2521V89.2397Z" fill="#0B032D"/>
<path d="M83.8554 89.2397H80.0537V92.872H83.8554V89.2397Z" fill="#0B032D"/>
<path d="M87.6569 89.2397H83.8552V92.872H87.6569V89.2397Z" fill="#0B032D"/>
<path d="M23.0283 92.872H19.2266V96.5043H23.0283V92.872Z" fill="#0B032D"/>
<path d="M30.6315 92.872H26.8298V96.5043H30.6315V92.872Z" fill="#0B032D"/>
<path d="M38.235 92.872H34.4333V96.5043H38.235V92.872Z" fill="#0B032D"/>
<path d="M45.8386 92.872H42.0369V96.5043H45.8386V92.872Z" fill="#0B032D"/>
<path d="M49.6401 92.872H45.8384V96.5043H49.6401V92.872Z" fill="#0B032D"/>
<path d="M53.4418 92.872H49.6401V96.5043H53.4418V92.872Z" fill="#0B032D"/>
<path d="M57.2436 92.872H53.4419V96.5043H57.2436V92.872Z" fill="#0B032D"/>
<path d="M61.0451 92.872H57.2434V96.5043H61.0451V92.872Z" fill="#0B032D"/>
<path d="M64.8469 92.872H61.0452V96.5043H64.8469V92.872Z" fill="#0B032D"/>
<path d="M68.6486 92.872H64.8469V96.5043H68.6486V92.872Z" fill="#0B032D"/>
<path d="M80.0537 92.872H76.252V96.5043H80.0537V92.872Z" fill="#0B032D"/>
<path d="M83.8554 92.872H80.0537V96.5043H83.8554V92.872Z" fill="#0B032D"/>
<path d="M91.4589 92.872H87.6572V96.5043H91.4589V92.872Z" fill="#0B032D"/>
<path d="M95.2605 92.872H91.4587V96.5043H95.2605V92.872Z" fill="#0B032D"/>
<path d="M19.2265 96.5043H15.4248V100.137H19.2265V96.5043Z" fill="#0B032D"/>
<path d="M23.0283 96.5043H19.2266V100.137H23.0283V96.5043Z" fill="#0B032D"/>
<path d="M34.4333 96.5043H30.6316V100.137H34.4333V96.5043Z" fill="#0B032D"/>
<path d="M45.8386 96.5043H42.0369V100.137H45.8386V96.5043Z" fill="#0B032D"/>
<path d="M53.4418 96.5043H49.6401V100.137H53.4418V96.5043Z" fill="#0B032D"/>
<path d="M76.2519 96.5043H72.4502V100.137H76.2519V96.5043Z" fill="#0B032D"/>
<path d="M80.0537 96.5043H76.252V100.137H80.0537V96.5043Z" fill="#0B032D"/>
<path d="M83.8554 96.5043H80.0537V100.137H83.8554V96.5043Z" fill="#0B032D"/>
<path d="M87.6569 96.5043H83.8552V100.137H87.6569V96.5043Z" fill="#0B032D"/>
<path d="M95.2604 96.5043H91.4587V100.137H95.2604V96.5043Z" fill="#0B032D"/>
<path d="M99.0622 96.5043H95.2605V100.137H99.0622V96.5043Z" fill="#0B032D"/>
<path d="M102.864 96.5043H99.062V100.137H102.864V96.5043Z" fill="#0B032D"/>
<path d="M23.0283 100.137H19.2266V103.769H23.0283V100.137Z" fill="#0B032D"/>
<path d="M30.6315 100.137H26.8298V103.769H30.6315V100.137Z" fill="#0B032D"/>
<path d="M38.2351 100.137H34.4333V103.769H38.2351V100.137Z" fill="#0B032D"/>
<path d="M45.8386 100.137H42.0369V103.769H45.8386V100.137Z" fill="#0B032D"/>
<path d="M49.6401 100.137H45.8384V103.769H49.6401V100.137Z" fill="#0B032D"/>
<path d="M53.4418 100.137H49.6401V103.769H53.4418V100.137Z" fill="#0B032D"/>
<path d="M61.0454 100.137H57.2437V103.769H61.0454V100.137Z" fill="#0B032D"/>
<path d="M68.6486 100.137H64.8469V103.769H68.6486V100.137Z" fill="#0B032D"/>
<path d="M76.2519 100.137H72.4502V103.769H76.2519V100.137Z" fill="#0B032D"/>
<path d="M80.0537 100.137H76.252V103.769H80.0537V100.137Z" fill="#0B032D"/>
<path d="M83.8554 100.137H80.0537V103.769H83.8554V100.137Z" fill="#0B032D"/>
<path d="M87.6572 100.137H83.8555V103.769H87.6572V100.137Z" fill="#0B032D"/>
<path d="M102.864 100.137H99.0623V103.769H102.864V100.137Z" fill="#0B032D"/>
<path d="M15.425 103.769H11.6233V107.401H15.425V103.769Z" fill="#0B032D"/>
<path d="M19.2267 103.769H15.425V107.401H19.2267V103.769Z" fill="#0B032D"/>
<path d="M26.83 103.769H23.0283V107.401H26.83V103.769Z" fill="#0B032D"/>
<path d="M30.6315 103.769H26.8298V107.401H30.6315V103.769Z" fill="#0B032D"/>
<path d="M34.4335 103.769H30.6318V107.401H34.4335V103.769Z" fill="#0B032D"/>
<path d="M42.0368 103.769H38.2351V107.401H42.0368V103.769Z" fill="#0B032D"/>
<path d="M45.8386 103.769H42.0369V107.401H45.8386V103.769Z" fill="#0B032D"/>
<path d="M57.2436 103.769H53.4419V107.401H57.2436V103.769Z" fill="#0B032D"/>
<path d="M64.8469 103.769H61.0452V107.401H64.8469V103.769Z" fill="#0B032D"/>
<path d="M80.0537 103.769H76.252V107.401H80.0537V103.769Z" fill="#0B032D"/>
<path d="M87.6571 103.769H83.8555V107.401H87.6571V103.769Z" fill="#0B032D"/>
<path d="M95.2605 103.769H91.4587V107.401H95.2605V103.769Z" fill="#0B032D"/>
<path d="M99.0622 103.769H95.2605V107.401H99.0622V103.769Z" fill="#0B032D"/>
<path d="M11.6232 107.401H7.82153V111.034H11.6232V107.401Z" fill="#0B032D"/>
<path d="M23.0282 107.401H19.2266V111.034H23.0282V107.401Z" fill="#0B032D"/>
<path d="M26.83 107.401H23.0283V111.034H26.83V107.401Z" fill="#0B032D"/>
<path d="M42.0368 107.401H38.2351V111.034H42.0368V107.401Z" fill="#0B032D"/>
<path d="M45.8386 107.401H42.0369V111.034H45.8386V107.401Z" fill="#0B032D"/>
<path d="M49.6401 107.401H45.8384V111.034H49.6401V107.401Z" fill="#0B032D"/>
<path d="M57.2436 107.401H53.4419V111.034H57.2436V107.401Z" fill="#0B032D"/>
<path d="M61.0451 107.401H57.2434V111.034H61.0451V107.401Z" fill="#0B032D"/>
<path d="M76.2521 107.401H72.4504V111.034H76.2521V107.401Z" fill="#0B032D"/>
<path d="M80.0537 107.401H76.252V111.034H80.0537V107.401Z" fill="#0B032D"/>
<path d="M83.8554 107.401H80.0537V111.034H83.8554V107.401Z" fill="#0B032D"/>
<path d="M87.6571 107.401H83.8555V111.034H87.6571V107.401Z" fill="#0B032D"/>
<path d="M102.864 107.401H99.062V111.034H102.864V107.401Z" fill="#0B032D"/>
<path d="M23.0282 111.034H19.2266V114.666H23.0282V111.034Z" fill="#0B032D"/>
<path d="M26.83 111.034H23.0283V114.666H26.83V111.034Z" fill="#0B032D"/>
<path d="M34.4333 111.034H30.6316V114.666H34.4333V111.034Z" fill="#0B032D"/>
<path d="M38.2351 111.034H34.4333V114.666H38.2351V111.034Z" fill="#0B032D"/>
<path d="M42.0368 111.034H38.2351V114.666H42.0368V111.034Z" fill="#0B032D"/>
<path d="M45.8386 111.034H42.0369V114.666H45.8386V111.034Z" fill="#0B032D"/>
<path d="M53.4418 111.034H49.6401V114.666H53.4418V111.034Z" fill="#0B032D"/>
<path d="M72.4504 111.034H68.6487V114.666H72.4504V111.034Z" fill="#0B032D"/>
<path d="M76.2521 111.034H72.4504V114.666H76.2521V111.034Z" fill="#0B032D"/>
<path d="M80.0537 111.034H76.252V114.666H80.0537V111.034Z" fill="#0B032D"/>
<path d="M83.8554 111.034H80.0537V114.666H83.8554V111.034Z" fill="#0B032D"/>
<path d="M87.6571 111.034H83.8555V114.666H87.6571V111.034Z" fill="#0B032D"/>
<path d="M91.4589 111.034H87.6572V114.666H91.4589V111.034Z" fill="#0B032D"/>
<path d="M95.2605 111.034H91.4587V114.666H95.2605V111.034Z" fill="#0B032D"/>
<path d="M99.0622 111.034H95.2605V114.666H99.0622V111.034Z" fill="#0B032D"/>
<path d="M102.864 111.034H99.062V114.666H102.864V111.034Z" fill="#0B032D"/>
<path d="M30.4416 52.9166H11.8133H7.82153V56.7305V74.5288V78.3427H11.8133H30.4416H34.4334V74.5288V56.7305V52.9166H30.4416ZM30.4416 74.5288H11.8133V56.7305H30.4416V74.5288Z" fill="#0B032D"/>
<path d="M98.8721 52.9166H80.2437H76.252V56.7305V74.5288V78.3427H80.2437H98.8721H102.864V74.5288V56.7305V52.9166H98.8721ZM98.8721 74.5288H80.2437V56.7305H98.8721V74.5288Z" fill="#0B032D"/>
<path d="M26.8299 60.1812H15.4248V71.0781H26.8299V60.1812Z" fill="#0B032D"/>
<path d="M95.2603 60.1812H83.8552V71.0781H95.2603V60.1812Z" fill="#0B032D"/>
</g>
</mask>
<g mask="url(#mask1)">
<path d="M9.82422 52.8462H53.4872C79.4102 52.8462 100.425 73.8609 100.425 99.7839V99.7839H56.7619C30.8389 99.7839 9.82422 78.7692 9.82422 52.8462V52.8462Z" fill="url(#paint0_linear)"/>
</g>
</g>
</g>
<defs>
<filter id="filter0_i" x="9.82422" y="7" width="92.4661" height="96.7839" filterUnits="userSpaceOnUse" color-interpolation-filters="sRGB">
<feFlood flood-opacity="0" result="BackgroundImageFix"/>
<feBlend mode="normal" in="SourceGraphic" in2="BackgroundImageFix" result="shape"/>
<feColorMatrix in="SourceAlpha" type="matrix" values="0 0 0 0 0 0 0 0 0 0 0 0 0 0 0 0 0 0 127 0" result="hardAlpha"/>
<feOffset dy="4"/>
<feGaussianBlur stdDeviation="2"/>
<feComposite in2="hardAlpha" operator="arithmetic" k2="-1" k3="1"/>
<feColorMatrix type="matrix" values="0 0 0 0 0 0 0 0 0 0 0 0 0 0 0 0 0 0 0.25 0"/>
<feBlend mode="normal" in2="shape" result="effect1_innerShadow"/>
</filter>
<filter id="filter1_d" x="8.8269" y="5" width="104.463" height="67.5798" filterUnits="userSpaceOnUse" color-interpolation-filters="sRGB">
<feFlood flood-opacity="0" result="BackgroundImageFix"/>
<feColorMatrix in="SourceAlpha" type="matrix" values="0 0 0 0 0 0 0 0 0 0 0 0 0 0 0 0 0 0 127 0"/>
<feOffset dx="5" dy="4"/>
<feGaussianBlur stdDeviation="3"/>
<feColorMatrix type="matrix" values="0 0 0 0 0 0 0 0 0 0 0 0 0 0 0 0 0 0 0.03 0"/>
<feBlend mode="normal" in2="BackgroundImageFix" result="effect1_dropShadow"/>
<feBlend mode="normal" in="SourceGraphic" in2="effect1_dropShadow" result="shape"/>
</filter>
<linearGradient id="paint0_linear" x1="55.1246" y1="52.8462" x2="55.1246" y2="99.7839" gradientUnits="userSpaceOnUse">
<stop stop-color="#0B032D"/>
<stop offset="0.739583" stop-color="#0B032B" stop-opacity="0.47"/>
<stop offset="0.953125" stop-color="#81719A" stop-opacity="0.15"/>
<stop offset="1" stop-color="#81719A" stop-opacity="0.17"/>
</linearGradient>
<clipPath id="clip0">
<rect width="110.249" height="105.337" fill="white" transform="translate(0 50.663)"/>
</clipPath>
</defs>
</svg>
